<svg width="185" height="32" viewBox="0 0 185 32" fill="none" xmlns="http://www.w3.org/2000/svg">
<path d="M28.2725 10.9081C30.3654 18.7189 25.8476 26.7161 18.1816 28.7702C10.5157 30.8243 2.60454 26.1574 0.511621 18.3466C-1.5813 10.5357 2.93653 2.53853 10.6025 0.48445C18.2684 -1.56963 26.1796 3.09717 28.2725 10.9081Z" fill="url(#paint0_linear_17:5312)"/>
<path d="M51.7021 20.6055H43.9561L41.9404 25H38.999L47.9521 5.76953L56.5889 25H53.6006L51.7021 20.6055ZM50.5889 18.0391L47.9053 11.8867L45.0928 18.0391H50.5889ZM58.3584 13.5859H60.9951V14.6406C61.5029 14.1094 61.9365 13.75 62.2959 13.5625C62.6787 13.3672 63.1592 13.2695 63.7373 13.2695C65.0264 13.2695 66.0459 13.832 66.7959 14.957C67.624 13.832 68.7451 13.2695 70.1592 13.2695C72.7295 13.2695 74.0146 14.8281 74.0146 17.9453V25H71.3662V18.6602C71.3662 17.5664 71.2334 16.793 70.9678 16.3398C70.6943 15.8789 70.2451 15.6484 69.6201 15.6484C68.8936 15.6484 68.3623 15.9219 68.0264 16.4688C67.6982 17.0156 67.5342 17.8945 67.5342 19.1055V25H64.8857V18.6953C64.8857 16.6641 64.2998 15.6484 63.1279 15.6484C62.3857 15.6484 61.8428 15.9258 61.499 16.4805C61.1631 17.0352 60.9951 17.9102 60.9951 19.1055V25H58.3584V13.5859ZM85.7568 13.5859H88.4053V25H85.7568V23.8047C84.6709 24.8203 83.5029 25.3281 82.2529 25.3281C80.6748 25.3281 79.3701 24.7578 78.3389 23.6172C77.3154 22.4531 76.8037 21 76.8037 19.2578C76.8037 17.5469 77.3154 16.1211 78.3389 14.9805C79.3623 13.8398 80.6436 13.2695 82.1826 13.2695C83.5107 13.2695 84.7021 13.8164 85.7568 14.9102V13.5859ZM79.499 19.2578C79.499 20.3516 79.792 21.2422 80.3779 21.9297C80.9795 22.625 81.7373 22.9727 82.6514 22.9727C83.6279 22.9727 84.417 22.6367 85.0186 21.9648C85.6201 21.2695 85.9209 20.3867 85.9209 19.3164C85.9209 18.2461 85.6201 17.3633 85.0186 16.668C84.417 15.9883 83.6357 15.6484 82.6748 15.6484C81.7686 15.6484 81.0107 15.9922 80.4014 16.6797C79.7998 17.375 79.499 18.2344 79.499 19.2578ZM94.4521 16.0469V25H91.8154V16.0469H90.6904V13.5859H91.8154V9.40234H94.4521V13.5859H96.5029V16.0469H94.4521ZM108.901 19.9141H100.722C100.792 20.8516 101.097 21.5977 101.636 22.1523C102.175 22.6992 102.866 22.9727 103.71 22.9727C104.366 22.9727 104.909 22.8164 105.339 22.5039C105.761 22.1914 106.241 21.6133 106.78 20.7695L109.007 22.0117C108.663 22.5977 108.3 23.1016 107.917 23.5234C107.534 23.9375 107.124 24.2812 106.687 24.5547C106.249 24.8203 105.776 25.0156 105.269 25.1406C104.761 25.2656 104.21 25.3281 103.616 25.3281C101.913 25.3281 100.546 24.7812 99.5146 23.6875C98.4834 22.5859 97.9678 21.125 97.9678 19.3047C97.9678 17.5 98.4678 16.0391 99.4678 14.9219C100.476 13.8203 101.812 13.2695 103.476 13.2695C105.155 13.2695 106.483 13.8047 107.46 14.875C108.429 15.9375 108.913 17.4102 108.913 19.293L108.901 19.9141ZM106.194 17.7578C105.827 16.3516 104.94 15.6484 103.534 15.6484C103.214 15.6484 102.913 15.6992 102.632 15.8008C102.351 15.8945 102.093 16.0352 101.858 16.2227C101.632 16.4023 101.437 16.6211 101.272 16.8789C101.108 17.1367 100.983 17.4297 100.897 17.7578H106.194ZM114.433 13.5859V20.1367C114.433 22.0273 115.179 22.9727 116.671 22.9727C118.163 22.9727 118.909 22.0273 118.909 20.1367V13.5859H121.546V20.1953C121.546 21.1094 121.433 21.8984 121.206 22.5625C120.987 23.1562 120.608 23.6914 120.069 24.168C119.179 24.9414 118.046 25.3281 116.671 25.3281C115.304 25.3281 114.175 24.9414 113.284 24.168C112.737 23.6914 112.351 23.1562 112.124 22.5625C111.905 22.0312 111.796 21.2422 111.796 20.1953V13.5859H114.433ZM124.874 13.5859H127.511V14.6055C127.995 14.0977 128.425 13.75 128.8 13.5625C129.183 13.3672 129.636 13.2695 130.159 13.2695C130.854 13.2695 131.581 13.4961 132.339 13.9492L131.132 16.3633C130.632 16.0039 130.144 15.8242 129.667 15.8242C128.229 15.8242 127.511 16.9102 127.511 19.082V25H124.874V13.5859ZM144.491 13.9844H152.296V6.90625H155.026V25H152.296V16.5508H144.491V25H141.761V6.90625H144.491V13.9844ZM161.495 13.5859V20.1367C161.495 22.0273 162.241 22.9727 163.733 22.9727C165.226 22.9727 165.972 22.0273 165.972 20.1367V13.5859H168.608V20.1953C168.608 21.1094 168.495 21.8984 168.269 22.5625C168.05 23.1562 167.671 23.6914 167.132 24.168C166.241 24.9414 165.108 25.3281 163.733 25.3281C162.366 25.3281 161.237 24.9414 160.347 24.168C159.8 23.6914 159.413 23.1562 159.187 22.5625C158.968 22.0312 158.858 21.2422 158.858 20.1953V13.5859H161.495ZM174.573 5.20703V14.9102C175.628 13.8164 176.823 13.2695 178.159 13.2695C179.698 13.2695 180.979 13.8438 182.003 14.9922C183.026 16.1328 183.538 17.5547 183.538 19.2578C183.538 21.0156 183.022 22.4688 181.991 23.6172C180.968 24.7578 179.675 25.3281 178.112 25.3281C176.792 25.3281 175.612 24.8203 174.573 23.8047V25H171.937V5.20703H174.573ZM180.843 19.375C180.843 18.2812 180.546 17.3906 179.952 16.7031C179.351 16 178.597 15.6484 177.69 15.6484C176.722 15.6484 175.933 15.9883 175.323 16.668C174.722 17.3398 174.421 18.2148 174.421 19.293C174.421 20.4023 174.718 21.2891 175.312 21.9531C175.905 22.6328 176.687 22.9727 177.655 22.9727C178.569 22.9727 179.327 22.6328 179.929 21.9531C180.538 21.2656 180.843 20.4062 180.843 19.375Z" fill="white"/>
<defs>
<linearGradient id="paint0_linear_17:5312" x1="10.6026" y1="0.484425" x2="18.1817" y2="28.7701" gradientUnits="userSpaceOnUse">
<stop stop-color="#FF8A00"/>
<stop offset="1" stop-color="#6A23FF" stop-opacity="0"/>
</linearGradient>
</defs>
</svg>
